<svg version="1.1" id="Layer_1" xmlns="http://www.w3.org/2000/svg" xmlns:xlink="http://www.w3.org/1999/xlink" x="0px" y="0px"
	 width="100%" viewBox="0 0 544 287" enable-background="new 0 0 544 287" xml:space="preserve">
<path fill="#FFFFFF" opacity="1.000000" stroke="none" 
	d="
M544.000000,0.999997 
	C544.333374,2.499993 544.957703,3.999850 544.958435,5.500013 
	C545.004578,99.666664 545.000000,193.833328 545.000000,288.000000 
	C365.166656,288.000000 185.333328,288.002411 5.500010,287.958649 
	C3.999927,287.958282 2.499998,287.333344 1.343013,286.467285 
	C2.508855,284.891754 3.348977,283.862091 4.151989,282.804260 
	C24.839603,255.552078 45.523342,228.296921 66.491394,201.022156 
	C67.170189,200.638641 67.565369,200.275284 67.935684,199.926590 
	C67.910812,199.941254 67.868187,199.902191 68.248581,199.953796 
	C69.880623,199.563629 71.157616,199.182541 72.380272,198.671417 
	C125.628128,176.412033 178.875214,154.150818 232.113892,131.869461 
	C317.111786,96.296295 402.110168,60.724281 487.093170,25.115602 
	C506.094330,17.153940 525.032715,9.042491 544.000000,0.999997 
z"/>
<path fill="#EA54AA" opacity="1.000000" stroke="none" 
	d="
M543.531372,1.000001 
	C525.032715,9.042491 506.094330,17.153940 487.093170,25.115602 
	C402.110168,60.724281 317.111786,96.296295 232.113892,131.869461 
	C178.875214,154.150818 125.628128,176.412033 72.380272,198.671417 
	C71.157616,199.182541 69.880623,199.563629 68.243896,199.597595 
	C69.576103,196.751083 71.223480,194.259521 73.021065,191.881485 
	C104.527573,150.201141 136.080048,108.555504 167.562057,66.856674 
	C184.101440,44.949799 200.524445,22.955065 217.000000,1.000003 
	C325.687561,1.000000 434.375122,1.000000 543.531372,1.000001 
z"/>
<path fill="#622385" opacity="1.000000" stroke="none" 
	d="
M216.531342,1.000003 
	C200.524445,22.955065 184.101440,44.949799 167.562057,66.856674 
	C136.080048,108.555504 104.527573,150.201141 73.021065,191.881485 
	C71.223480,194.259521 69.576103,196.751083 67.863503,199.546005 
	C67.868187,199.902191 67.910812,199.941254 67.642181,199.878036 
	C66.984962,200.223984 66.596367,200.633148 66.207764,201.042297 
	C45.523342,228.296921 24.839603,255.552078 4.151989,282.804260 
	C3.348977,283.862091 2.508855,284.891754 1.343014,285.967285 
	C1.000000,191.082993 1.000000,96.165985 1.000000,1.000000 
	C72.687370,1.000000 144.375031,1.000000 216.531342,1.000003 
z"/>
<path fill="#EA54AA" opacity="1.000000" stroke="none" 
	d="
M66.491394,201.022156 
	C66.596367,200.633148 66.984962,200.223984 67.667053,199.863373 
	C67.565369,200.275284 67.170189,200.638641 66.491394,201.022156 
z"/>
</svg>