<?xml version="1.0" encoding="UTF-8"?>
<svg id="Layer_1" data-name="Layer 1" xmlns="http://www.w3.org/2000/svg" viewBox="0 0 503.98 226.77">
  <defs>
    <style>
      .cls-1 {
        fill: #010d22;
      }

      .cls-1, .cls-2, .cls-3, .cls-4 {
        stroke-width: 0px;
      }

      .cls-2 {
        fill: #000f20;
      }

      .cls-3 {
        fill: #9ea1a2;
      }

      .cls-4 {
        fill: #ffb600;
      }
    </style>
  </defs>
  <path class="cls-1" d="m382.99,133.85c-.18-.25-.38-.49-.54-.75-6.3-9.71-12.6-19.41-18.88-29.13-.25-.38-.89-.8-.29-1.35.55-.51.99.07,1.4.3,5.45,3.09,10.89,6.18,16.3,9.33.95.55,1.59.5,2.49-.14,11.53-8.3,23.1-16.55,34.65-24.82.26-.18.51-.37.77-.55.39-.27.8-.64,1.23-.11.4.49-.13.75-.36,1.05-5.34,6.78-10.69,13.55-16.04,20.32-6.56,8.3-13.13,16.59-19.71,24.88-.28.35-.45.83-1.01.98Z"/>
  <path class="cls-2" d="m493.55,194.73l-24.62-17.33c8.3-12.46,13.94-26.65,16.46-41.86,4.66-28.18-1.94-56.49-18.57-79.71-16.63-23.22-41.31-38.57-69.49-43.23-28.18-4.66-56.49,1.93-79.71,18.57-23.22,16.63-38.57,41.31-43.23,69.49-4.66,28.18,1.94,56.49,18.57,79.71,16.63,23.22,41.31,38.57,69.49,43.23,5.9.98,11.8,1.46,17.67,1.46,22.14,0,43.68-6.88,62.04-20.03.38-.27.76-.56,1.14-.83l29.15,20.52,21.11-29.99Zm-175.31-32.47c-24.35-33.99-16.5-81.46,17.49-105.81,13.02-9.33,28.29-14.2,44-14.2,4.16,0,8.35.34,12.53,1.03,19.98,3.3,37.49,14.19,49.28,30.66,11.79,16.47,16.47,36.54,13.17,56.53-3.3,19.98-14.19,37.49-30.66,49.28-33.99,24.35-81.46,16.5-105.81-17.49Z"/>
  <g>
    <path class="cls-2" d="m104.95,40.42c18.78,0,31.74,4.83,37.79,7.7l3.27,1.55,7.98-26.37-2.28-1.19c-3.99-2.09-19.22-8.91-47.59-8.91-30.5,0-56.65,10.04-75.6,29.04C9.53,61.29-.51,87.6-.51,118.34c0,31.32,9.8,57.4,28.33,75.42,17.62,17.13,42.05,26.19,70.64,26.19,24.86,0,43.57-4.96,52.8-9.6l2.23-1.12-6.58-26.13-3.43,1.64c-9.91,4.73-25.19,7.67-39.86,7.67-44.72,0-71.41-27.99-71.41-74.87S59.4,40.42,104.95,40.42Z"/>
    <rect class="cls-2" x="175.82" y="17.21" width="30.09" height="199.89"/>
    <rect class="cls-2" x="227.94" y="78.96" width="30.09" height="138.14"/>
    <path class="cls-2" d="m243.03,26.73c-4.96,0-9.52,1.84-12.85,5.17-3.35,3.36-5.19,7.93-5.18,12.86-.01,5.04,1.83,9.66,5.18,13.03,3.22,3.22,7.62,5,12.41,5,5.31,0,9.91-1.79,13.28-5.17,3.29-3.3,5.1-7.87,5.09-12.86v-.02c-.08-10.44-7.62-18.02-17.93-18.02Z"/>
  </g>
  <g>
    <polygon class="cls-4" points="373.71 2 380.69 1.72 380.66 4.14 373.81 4.09 373.71 2"/>
    <polygon class="cls-4" points="387.68 1.83 394.67 2.33 394.25 5.51 387.48 4.62 387.68 1.83"/>
    <polygon class="cls-4" points="401.63 3.21 408.54 4.49 407.53 8.52 400.94 6.82 401.63 3.21"/>
    <polygon class="cls-4" points="415.39 6.15 422.15 8.2 420.28 13.11 413.98 10.63 415.39 6.15"/>
    <polygon class="cls-4" points="428.8 10.62 435.31 13.44 432.35 19.16 426.41 15.97 428.8 10.62"/>
    <polygon class="cls-4" points="441.67 16.64 447.84 20.21 443.57 26.53 438.07 22.68 441.67 16.64"/>
    <path class="cls-4" d="m453.82,24.13l5.74,4.29-5.74,6.67c-1.67-1.46-3.33-2.94-5-4.42l5-6.54Z"/>
    <polygon class="cls-4" points="465.04 33.06 470.25 38.03 463 44.7 458.56 39.77 465.04 33.06"/>
    <polygon class="cls-4" points="475.17 43.3 479.75 48.89 471 55.23 467.14 49.87 475.17 43.3"/>
    <polygon class="cls-4" points="483.99 54.76 487.87 60.89 477.76 66.54 474.54 60.8 483.99 54.76"/>
    <polygon class="cls-4" points="491.35 67.25 494.46 73.82 483.21 78.48 480.66 72.43 491.35 67.25"/>
    <polygon class="cls-4" points="497.14 80.57 499.43 87.47 487.33 90.92 485.45 84.64 497.14 80.57"/>
    <polygon class="cls-4" points="501.29 94.51 502.73 101.65 490.07 103.73 488.89 97.29 501.29 94.51"/>
    <path class="cls-4" d="m503.76,108.87c.2,2.42.42,4.84.6,7.27l-13.03.6c-.16-2.17-.3-4.34-.44-6.52l12.87-1.35Z"/>
    <polygon class="cls-4" points="504.49 123.43 504.19 130.72 491.14 129.79 491.42 123.26 504.49 123.43"/>
    <path class="cls-4" d="m503.47,137.98c-.37,2.4-.78,4.8-1.18,7.2l-12.84-2.45c.34-2.15.65-4.3,1.01-6.45l13,1.7Z"/>
    <polygon class="cls-4" points="500.68 152.3 498.66 159.3 486.33 155.42 488.08 149.12 500.68 152.3"/>
    <polygon class="cls-4" points="496.22 166.17 493.38 172.87 481.8 167.69 484.24 161.61 496.22 166.17"/>
    <polygon class="cls-4" points="490.15 179.39 486.54 185.7 475.91 179.38 479.02 173.61 490.15 179.39"/>
  </g>
  <g>
    <polygon class="cls-3" points="373.71 47.09 377.88 46.92 377.86 48.38 373.77 48.34 373.71 47.09"/>
    <polygon class="cls-3" points="382.05 46.99 386.23 47.29 385.98 49.19 381.94 48.66 382.05 46.99"/>
    <polygon class="cls-3" points="390.38 47.82 394.51 48.58 393.9 50.99 389.97 49.97 390.38 47.82"/>
    <polygon class="cls-3" points="398.6 49.57 402.63 50.79 401.52 53.73 397.76 52.25 398.6 49.57"/>
    <polygon class="cls-3" points="406.6 52.24 410.49 53.93 408.72 57.34 405.18 55.43 406.6 52.24"/>
    <polygon class="cls-3" points="414.29 55.84 417.98 57.96 415.42 61.74 412.14 59.44 414.29 55.84"/>
    <path class="cls-3" d="m421.54,60.31l3.43,2.56-3.43,3.98c-1-.87-1.99-1.75-2.98-2.64l2.98-3.9Z"/>
    <polygon class="cls-3" points="428.24 65.64 431.35 68.6 427.02 72.59 424.37 69.64 428.24 65.64"/>
    <polygon class="cls-3" points="434.29 71.76 437.03 75.09 431.8 78.88 429.5 75.67 434.29 71.76"/>
    <polygon class="cls-3" points="439.56 78.6 441.87 82.25 435.83 85.63 433.91 82.2 439.56 78.6"/>
    <polygon class="cls-3" points="443.95 86.05 445.81 89.97 439.09 92.76 437.57 89.15 443.95 86.05"/>
    <polygon class="cls-3" points="447.41 94.01 448.78 98.13 441.55 100.19 440.43 96.44 447.41 94.01"/>
    <polygon class="cls-3" points="449.88 102.33 450.75 106.59 443.19 107.83 442.48 103.99 449.88 102.33"/>
    <path class="cls-3" d="m451.36,110.9c.12,1.45.25,2.89.36,4.34l-7.78.36c-.1-1.3-.18-2.59-.26-3.89l7.69-.8Z"/>
    <polygon class="cls-3" points="451.79 119.6 451.62 123.95 443.82 123.39 443.99 119.5 451.79 119.6"/>
    <path class="cls-3" d="m451.19,128.29c-.22,1.44-.47,2.87-.7,4.3l-7.66-1.46c.2-1.28.39-2.57.61-3.85l7.76,1.02Z"/>
    <polygon class="cls-3" points="449.52 136.83 448.32 141.01 440.95 138.7 442 134.94 449.52 136.83"/>
    <polygon class="cls-3" points="446.86 145.11 445.16 149.11 438.25 146.02 439.7 142.39 446.86 145.11"/>
    <polygon class="cls-3" points="443.23 153.01 441.08 156.78 434.73 153 436.59 149.56 443.23 153.01"/>
  </g>
</svg>